inDegrees=yes
name=ik_FinalMotion
DataType=double
version=3
OpenSimVersion=4.4-2022-07-23-0e9fedc
endheader
time	pelvis_tilt	pelvis_list	pelvis_rotation	pelvis_tx	pelvis_ty	pelvis_tz	hip_flexion_l	hip_adduction_l	hip_rotation_l	knee_angle_l	ankle_angle_l	subtalar_angle_l	mtp_angle_l
26.62	0	0	0	0	0	0	0	0	0	0	-7.708099384	-15.68793253	0
26.74	0	0	0	0	0	0	0	0	0	0	-7.785204532	-16.40721615	0
26.92	0	0	0	0	0	0	0	0	0	0	-8.14483839	-16.76783383	0
27.05	0	0	0	0	0	0	0	0	0	0	-8.258671219	-16.91003599	0
27.17	0	0	0	0	0	0	0	0	0	0	-8.071413228	-16.52308998	0
27.29	0	0	0	0	0	0	0	0	0	0	-7.080668465	-13.25522121	0
27.4	0	0	0	0	0	0	0	0	0	0	-5.048604578	-8.644783403	0
27.53	0	0	0	0	0	0	0	0	0	0	-3.113309841	-5.254493999	0
27.65	0	0	0	0	0	0	0	0	0	0	-3.573585505	1.217017356	0
27.77	0	0	0	0	0	0	0	0	0	0	-4.892428809	7.299940591	0
27.89	0	0	0	0	0	0	0	0	0	0	-5.481755792	7.442259396	0
28	0	0	0	0	0	0	0	0	0	0	-4.62576854	7.447948737	0
28.13	0	0	0	0	0	0	0	0	0	0	-4.446228943	9.802043923	0
28.3	0	0	0	0	0	0	0	0	0	0	-4.94518081	11.91703995	0
28.42	0	0	0	0	0	0	0	0	0	0	-6.891655008	17.56368374	0
28.54	0	0	0	0	0	0	0	0	0	0	-6.198094938	19.31879673	0
28.66	0	0	0	0	0	0	0	0	0	0	-4.339172292	21.38819555	0
28.79	0	0	0	0	0	0	0	0	0	0	-4.251948232	21.67371189	0
28.91	0	0	0	0	0	0	0	0	0	0	-4.329666162	21.5922452	0
29.03	0	0	0	0	0	0	0	0	0	0	-3.792283056	19.96428682	0
29.15	0	0	0	0	0	0	0	0	0	0	-1.773084476	14.97903756	0
29.27	0	0	0	0	0	0	0	0	0	0	-0.971250259	10.99042262	0
29.38	0	0	0	0	0	0	0	0	0	0	-3.817407745	1.803413401	0
29.51	0	0	0	0	0	0	0	0	0	0	-5.807552435	-4.162352457	0
29.62	0	0	0	0	0	0	0	0	0	0	-7.796977752	-14.57854525	0
29.74	0	0	0	0	0	0	0	0	0	0	-8.735799139	-16.36573922	0
29.87	0	0	0	0	0	0	0	0	0	0	-9.732356547	-16.8580805	0
29.98	0	0	0	0	0	0	0	0	0	0	-9.8540837	-17.26728017	0
30.11	0	0	0	0	0	0	0	0	0	0	-9.391999651	-16.86137842	0
30.23	0	0	0	0	0	0	0	0	0	0	-9.302061962	-16.40786441	0
30.35	0	0	0	0	0	0	0	0	0	0	-8.485494921	-14.07012925	0
30.46	0	0	0	0	0	0	0	0	0	0	-5.894722524	-8.448351146	0
30.59	0	0	0	0	0	0	0	0	0	0	-2.939283488	-2.371951677	0
30.71	0	0	0	0	0	0	0	0	0	0	-2.274285912	6.410710232	0
30.82	0	0	0	0	0	0	0	0	0	0	-2.38331201	13.76157655	0
30.94	0	0	0	0	0	0	0	0	0	0	-2.446671417	19.3252236	0
31.07	0	0	0	0	0	0	0	0	0	0	-2.607581948	22.08289052	0
31.18	0	0	0	0	0	0	0	0	0	0	-2.916942517	23.06559334	0
31.31	0	0	0	0	0	0	0	0	0	0	-2.751677827	22.93598385	0
31.42	0	0	0	0	0	0	0	0	0	0	-2.440461848	21.8158584	0
31.54	0	0	0	0	0	0	0	0	0	0	-2.489242592	20.67775119	0
31.67	0	0	0	0	0	0	0	0	0	0	-2.496935529	13.04184372	0
31.79	0	0	0	0	0	0	0	0	0	0	-1.590496936	8.191044422	0
31.9	0	0	0	0	0	0	0	0	0	0	-1.604074978	2.508175912	0
32.03	0	0	0	0	0	0	0	0	0	0	-2.661448055	-2.410387839	0
32.14	0	0	0	0	0	0	0	0	0	0	-4.3433517	-9.872778511	0
32.27	0	0	0	0	0	0	0	0	0	0	-6.260606968	-15.7052766	0
32.39	0	0	0	0	0	0	0	0	0	0	-6.804494162	-16.62590984	0
32.5	0	0	0	0	0	0	0	0	0	0	-6.711969012	-16.94778063	0
32.63	0	0	0	0	0	0	0	0	0	0	-6.583793728	-16.91404924	0
32.75	0	0	0	0	0	0	0	0	0	0	-6.574664807	-16.45468464	0
32.87	0	0	0	0	0	0	0	0	0	0	-5.342170318	-12.67626574	0
32.98	0	0	0	0	0	0	0	0	0	0	-2.875877524	-8.231927264	0
33.11	0	0	0	0	0	0	0	0	0	0	-0.482491974	-3.07761057	0
33.22	0	0	0	0	0	0	0	0	0	0	-1.827329093	-0.033577306	0
33.35	0	0	0	0	0	0	0	0	0	0	-3.300000953	3.153805042	0
33.49	0	0	0	0	0	0	0	0	0	0	-4.122917606	6.513884831	0
33.59	0	0	0	0	0	0	0	0	0	0	-4.498789437	6.259266472	0
33.7	0	0	0	0	0	0	0	0	0	0	-6.484497838	4.366053352	0
33.82	0	0	0	0	0	0	0	0	0	0	-3.752147745	2.642158943	0
33.95	0	0	0	0	0	0	0	0	0	0	-0.132785205	2.915833088	0
34.07	0	0	0	0	0	0	0	0	0	0	3.716478239	0.417267365	0
34.18	0	0	0	0	0	0	0	0	0	0	6.279855619	0.937764027	0
34.31	0	0	0	0	0	0	0	0	0	0	10.83992423	2.64835468	0
34.48	0	0	0	0	0	0	0	0	0	0	12.66251296	2.971500481	0
34.61	0	0	0	0	0	0	0	0	0	0	12.88655277	2.344574942	0
34.73	0	0	0	0	0	0	0	0	0	0	12.23892221	1.741892866	0
34.84	0	0	0	0	0	0	0	0	0	0	10.19834627	0.792067045	0
34.97	0	0	0	0	0	0	0	0	0	0	6.25846296	1.407861717	0
35.09	0	0	0	0	0	0	0	0	0	0	3.48355694	1.913777696	0
35.21	0	0	0	0	0	0	0	0	0	0	2.428960512	1.343524319	0
35.33	0	0	0	0	0	0	0	0	0	0	0.202590133	0.822463274	0
35.44	0	0	0	0	0	0	0	0	0	0	-2.941004506	-3.093327417	0
35.57	0	0	0	0	0	0	0	0	0	0	-10.86772978	-2.413834077	0
35.68	0	0	0	0	0	0	0	0	0	0	-16.71249904	-1.746843288	0
35.82	0	0	0	0	0	0	0	0	0	0	-17.0191225	-1.522851883	0
35.93	0	0	0	0	0	0	0	0	0	0	-16.19879967	-1.263682653	0
36.04	0	0	0	0	0	0	0	0	0	0	-16.96083594	0.194103789	0
36.17	0	0	0	0	0	0	0	0	0	0	-19.95264535	0.554044728	0
36.29	0	0	0	0	0	0	0	0	0	0	-24.42611398	-0.19144634	0
36.41	0	0	0	0	0	0	0	0	0	0	-24.94603188	-0.166830214	0
36.52	0	0	0	0	0	0	0	0	0	0	-20.7294348	-1.403037925	0
36.64	0	0	0	0	0	0	0	0	0	0	-15.08180608	-2.144642451	0
36.77	0	0	0	0	0	0	0	0	0	0	-4.722708771	0.225448643	0
36.89	0	0	0	0	0	0	0	0	0	0	-1.959403259	0.644697352	0
37.01	0	0	0	0	0	0	0	0	0	0	-1.233624031	0.178232034	0
37.13	0	0	0	0	0	0	0	0	0	0	-0.431043086	0.168690198	0
37.24	0	0	0	0	0	0	0	0	0	0	0.438453892	-0.622901342	0
37.37	0	0	0	0	0	0	0	0	0	0	1.978119074	-1.41975908	0
37.48	0	0	0	0	0	0	0	0	0	0	2.095791848	-1.21327857	0
37.6	0	0	0	0	0	0	0	0	0	0	2.393483126	-1.475826004	0
37.73	0	0	0	0	0	0	0	0	0	0	2.523741862	-1.595132708	0
37.84	0	0	0	0	0	0	0	0	0	0	2.256832119	-1.713381992	0
37.97	0	0	0	0	0	0	0	0	0	0	1.609178484	-1.975828799	0
38.08	0	0	0	0	0	0	0	0	0	0	-0.537612904	-1.1016851	0
38.26	0	0	0	0	0	0	0	0	0	0	-4.567821782	-0.40901032	0
38.44	0	0	0	0	0	0	0	0	0	0	-7.205742275	0.018764185	0
38.56	0	0	0	0	0	0	0	0	0	0	-14.2078329	-1.419372156	0
38.68	0	0	0	0	0	0	0	0	0	0	-16.58346501	-1.078859769	0
38.8	0	0	0	0	0	0	0	0	0	0	-18.96385128	-0.89541093	0
38.93	0	0	0	0	0	0	0	0	0	0	-20.97152304	-0.31245681	0
39.05	0	0	0	0	0	0	0	0	0	0	-22.05822168	1.610626083	0
39.16	0	0	0	0	0	0	0	0	0	0	-22.84893324	0.835071914	0
39.29	0	0	0	0	0	0	0	0	0	0	-22.41778107	-0.034345679	0
39.4	0	0	0	0	0	0	0	0	0	0	-21.29560439	-0.115832119	0
39.52	0	0	0	0	0	0	0	0	0	0	-18.64472014	-0.193539823	0
39.65	0	0	0	0	0	0	0	0	0	0	-13.11176741	0.633636174	0
39.77	0	0	0	0	0	0	0	0	0	0	-9.805941784	-0.203115418	0
39.88	0	0	0	0	0	0	0	0	0	0	-3.006788899	0.643474856	0
40.01	0	0	0	0	0	0	0	0	0	0	0.407550822	1.313340764	0
40.13	0	0	0	0	0	0	0	0	0	0	2.819394215	1.476961619	0
40.25	0	0	0	0	0	0	0	0	0	0	4.734465072	0.820125167	0
40.37	0	0	0	0	0	0	0	0	0	0	5.938728875	0.605483489	0
40.49	0	0	0	0	0	0	0	0	0	0	7.034966469	0.473195653	0
40.6	0	0	0	0	0	0	0	0	0	0	8.01778444	0.552274325	0
40.73	0	0	0	0	0	0	0	0	0	0	7.624606857	0.300842935	0
40.85	0	0	0	0	0	0	0	0	0	0	6.800237013	0.053516885	0
40.97	0	0	0	0	0	0	0	0	0	0	3.329594037	-2.48747774	0
41.08	0	0	0	0	0	0	0	0	0	0	-1.633661633	-4.004500844	0
41.21	0	0	0	0	0	0	0	0	0	0	-4.071006444	-4.387341938	0
41.33	0	0	0	0	0	0	0	0	0	0	-7.380470316	-10.64302571	0
41.44	0	0	0	0	0	0	0	0	0	0	-9.326920675	-15.74294241	0
41.57	0	0	0	0	0	0	0	0	0	0	-10.76285505	-19.01448823	0
41.68	0	0	0	0	0	0	0	0	0	0	-11.66970249	-19.98756992	0
41.8	0	0	0	0	0	0	0	0	0	0	-11.98018728	-20.37775094	0
41.92	0	0	0	0	0	0	0	0	0	0	-10.15740198	-19.58324533	0
42.05	0	0	0	0	0	0	0	0	0	0	-9.39298296	-16.50888617	0
42.17	0	0	0	0	0	0	0	0	0	0	-8.920381385	-13.717412	0
42.29	0	0	0	0	0	0	0	0	0	0	-7.100092458	-9.360642682	0
42.41	0	0	0	0	0	0	0	0	0	0	-5.166839214	-6.089965488	0
42.53	0	0	0	0	0	0	0	0	0	0	-4.172397391	-4.693930214	0
42.65	0	0	0	0	0	0	0	0	0	0	-2.807206031	-3.359496386	0
42.76	0	0	0	0	0	0	0	0	0	0	-0.417967372	5.372041806	0
42.88	0	0	0	0	0	0	0	0	0	0	0.61353886	8.633128974	0
43.01	0	0	0	0	0	0	0	0	0	0	1.797800417	13.62818617	0
43.12	0	0	0	0	0	0	0	0	0	0	2.783534846	18.34783836	0
43.25	0	0	0	0	0	0	0	0	0	0	2.937625815	18.69328517	0
43.37	0	0	0	0	0	0	0	0	0	0	4.581139037	15.84721171	0
43.49	0	0	0	0	0	0	0	0	0	0	5.491826236	15.21305219	0
43.61	0	0	0	0	0	0	0	0	0	0	5.156718135	11.85505688	0
43.73	0	0	0	0	0	0	0	0	0	0	3.38421074	4.747109643	0
43.85	0	0	0	0	0	0	0	0	0	0	1.490777234	-2.194221465	0
43.96	0	0	0	0	0	0	0	0	0	0	0.869062341	-4.791080191	0
44.09	0	0	0	0	0	0	0	0	0	0	-3.06427763	-12.51871955	0
44.21	0	0	0	0	0	0	0	0	0	0	-3.073043987	-12.66868716	0
44.33	0	0	0	0	0	0	0	0	0	0	-1.845401991	-8.989883859	0
44.44	0	0	0	0	0	0	0	0	0	0	-2.312394822	-7.913631011	0
44.56	0	0	0	0	0	0	0	0	0	0	-1.60886119	1.020761556	0
44.69	0	0	0	0	0	0	0	0	0	0	-0.874847118	4.055720484	0
44.8	0	0	0	0	0	0	0	0	0	0	-2.462601966	5.463938877	0
44.93	0	0	0	0	0	0	0	0	0	0	-5.042138649	6.85844588	0
45.04	0	0	0	0	0	0	0	0	0	0	-11.61349588	3.323911913	0
45.16	0	0	0	0	0	0	0	0	0	0	-12.84725181	2.015540576	0
45.28	0	0	0	0	0	0	0	0	0	0	-15.79834451	2.548764352	0
45.4	0	0	0	0	0	0	0	0	0	0	-17.66205421	2.282409498	0
45.53	0	0	0	0	0	0	0	0	0	0	-19.98530337	2.472181742	0
45.65	0	0	0	0	0	0	0	0	0	0	-23.47021028	1.457463449	0
45.82	0	0	0	0	0	0	0	0	0	0	-26.32036202	0.599958456	0
45.94	0	0	0	0	0	0	0	0	0	0	-25.78065219	-0.208213171	0
46.06	0	0	0	0	0	0	0	0	0	0	-20.63987735	-2.359784924	0
46.19	0	0	0	0	0	0	0	0	0	0	-16.9840531	-3.175236044	0
46.3	0	0	0	0	0	0	0	0	0	0	-7.866933228	-2.68673841	0
46.42	0	0	0	0	0	0	0	0	0	0	-2.676871272	-0.986308065	0
46.54	0	0	0	0	0	0	0	0	0	0	0.645024165	-0.425155431	0
46.66	0	0	0	0	0	0	0	0	0	0	3.529001688	-0.347660479	0
46.79	0	0	0	0	0	0	0	0	0	0	5.362722024	-0.757163785	0
46.9	0	0	0	0	0	0	0	0	0	0	7.924781432	-0.257808893	0
47.03	0	0	0	0	0	0	0	0	0	0	8.726330327	0.027694576	0
47.15	0	0	0	0	0	0	0	0	0	0	8.460509954	-0.30763179	0
47.26	0	0	0	0	0	0	0	0	0	0	7.673374353	-0.657736228	0
47.39	0	0	0	0	0	0	0	0	0	0	4.692582003	-0.031908411	0
47.5	0	0	0	0	0	0	0	0	0	0	1.956312528	2.576264162	0
47.62	0	0	0	0	0	0	0	0	0	0	-6.632622094	2.429963555	0
47.75	0	0	0	0	0	0	0	0	0	0	-10.05690929	1.590229977	0
47.86	0	0	0	0	0	0	0	0	0	0	-15.14002446	0.813320106	0
47.99	0	0	0	0	0	0	0	0	0	0	-18.66055707	0.625468328	0
48.11	0	0	0	0	0	0	0	0	0	0	-20.52444341	0.436662188	0
48.22	0	0	0	0	0	0	0	0	0	0	-22.14076749	0.258529277	0
48.35	0	0	0	0	0	0	0	0	0	0	-24.89448432	-0.007368085	0
48.46	0	0	0	0	0	0	0	0	0	0	-26.15913792	-0.102497165	0
48.59	0	0	0	0	0	0	0	0	0	0	-28.52786427	-0.148676275	0
48.71	0	0	0	0	0	0	0	0	0	0	-30.10701984	-0.42390995	0
48.82	0	0	0	0	0	0	0	0	0	0	-30.35249086	-0.554172685	0
48.94	0	0	0	0	0	0	0	0	0	0	-30.18167278	-0.778001032	0
49.07	0	0	0	0	0	0	0	0	0	0	-28.13954546	-1.099274408	0
49.18	0	0	0	0	0	0	0	0	0	0	-21.04578283	-1.318211841	0
49.3	0	0	0	0	0	0	0	0	0	0	-17.55796534	0.22459049	0
49.42	0	0	0	0	0	0	0	0	0	0	-10.84655547	1.508454895	0
49.6	0	0	0	0	0	0	0	0	0	0	-4.202816412	3.474372392	0
49.73	0	0	0	0	0	0	0	0	0	0	1.607218429	4.035172996	0
49.85	0	0	0	0	0	0	0	0	0	0	4.242683805	4.580211228	0
49.97	0	0	0	0	0	0	0	0	0	0	6.070984054	4.078642159	0
50.15	0	0	0	0	0	0	0	0	0	0	7.191132333	3.956858372	0
50.26	0	0	0	0	0	0	0	0	0	0	5.66967466	2.695716876	0
50.39	0	0	0	0	0	0	0	0	0	0	4.551022126	1.507583298	0
50.51	0	0	0	0	0	0	0	0	0	0	3.671087453	1.59066522	0
50.62	0	0	0	0	0	0	0	0	0	0	4.084364665	2.002641582	0
50.75	0	0	0	0	0	0	0	0	0	0	4.127060281	1.779654557	0
50.87	0	0	0	0	0	0	0	0	0	0	2.044675079	0.056383275	0
50.99	0	0	0	0	0	0	0	0	0	0	-0.509100012	-3.150518938	0
51.1	0	0	0	0	0	0	0	0	0	0	-1.367208845	-4.98821163	0
51.22	0	0	0	0	0	0	0	0	0	0	-1.669335725	-3.00112646	0
51.34	0	0	0	0	0	0	0	0	0	0	-2.883202106	-0.772628732	0
51.47	0	0	0	0	0	0	0	0	0	0	-2.46205877	-0.414214217	0
51.59	0	0	0	0	0	0	0	0	0	0	-2.118130042	-0.458257554	0
51.7	0	0	0	0	0	0	0	0	0	0	-2.039779269	-0.40703359	0
51.82	0	0	0	0	0	0	0	0	0	0	-1.835549124	-0.395595965	0
51.94	0	0	0	0	0	0	0	0	0	0	-1.567915261	-0.580243898	0
52.07	0	0	0	0	0	0	0	0	0	0	-1.64645471	-0.646778815	0
52.18	0	0	0	0	0	0	0	0	0	0	-1.653165799	-0.799455026	0
52.31	0	0	0	0	0	0	0	0	0	0	-1.52966332	-0.897489084	0
52.42	0	0	0	0	0	0	0	0	0	0	-1.620998475	-0.911615904	0
52.54	0	0	0	0	0	0	0	0	0	0	-1.55738921	-0.970624838	0
52.67	0	0	0	0	0	0	0	0	0	0	-1.535218738	-1.032154099	0
52.79	0	0	0	0	0	0	0	0	0	0	-1.558993217	-1.01898519	0
52.91	0	0	0	0	0	0	0	0	0	0	-1.434530335	-1.107124128	0
53.02	0	0	0	0	0	0	0	0	0	0	-1.440066725	-1.108451413	0
53.15	0	0	0	0	0	0	0	0	0	0	-1.410445005	-1.211819684	0
53.27	0	0	0	0	0	0	0	0	0	0	-1.40222374	-1.246054681	0
53.39	0	0	0	0	0	0	0	0	0	0	-1.353372889	-1.262111108	0
53.51	0	0	0	0	0	0	0	0	0	0	-1.343253134	-1.312140123	0
53.62	0	0	0	0	0	0	0	0	0	0	-1.3457459	-1.344570015	0
